<svg width="51" height="62" viewBox="0 0 51 62" fill="none" xmlns="http://www.w3.org/2000/svg">
<path d="M25.275 33.7398C29.9368 33.7398 33.716 29.9864 33.716 25.3563C33.716 20.7261 29.9368 16.9727 25.275 16.9727C20.6132 16.9727 16.834 20.7261 16.834 25.3563C16.834 29.9864 20.6132 33.7398 25.275 33.7398Z" stroke="#338A43" stroke-width="5" stroke-linecap="round" stroke-linejoin="round"/>
<path d="M25.275 3C19.3051 3 13.5798 5.35538 9.35847 9.54799C5.13714 13.7406 2.76563 19.427 2.76562 25.3563C2.76563 30.6435 3.89672 34.1031 6.98613 37.9316L25.275 58.8906L43.5639 37.9316C46.6533 34.1031 47.7844 30.6435 47.7844 25.3563C47.7844 19.427 45.4129 13.7406 41.1915 9.54799C36.9702 5.35538 31.2449 3 25.275 3V3Z" stroke="#338A43" stroke-width="5" stroke-linecap="round" stroke-linejoin="round"/>
</svg>
