<svg width="61" height="60" viewBox="0 0 61 60" fill="none" xmlns="http://www.w3.org/2000/svg">
<path d="M30.5859 57.8906C46.0201 57.8906 58.5313 45.3795 58.5313 29.9453C58.5313 14.5111 46.0201 2 30.5859 2C15.1517 2 2.64062 14.5111 2.64062 29.9453C2.64062 45.3795 15.1517 57.8906 30.5859 57.8906Z" stroke="#338A43" stroke-width="4" stroke-linejoin="round"/>
<path d="M30.586 21.5617C31.6977 21.5617 32.7639 21.1201 33.55 20.334C34.3361 19.5478 34.7778 18.4816 34.7778 17.3699C34.7778 16.2582 34.3361 15.192 33.55 14.4059C32.7639 13.6197 31.6977 13.1781 30.586 13.1781C29.4742 13.1781 28.408 13.6197 27.6219 14.4059C26.8358 15.192 26.3942 16.2582 26.3942 17.3699C26.3942 18.4816 26.8358 19.5478 27.6219 20.334C28.408 21.1201 29.4742 21.5617 30.586 21.5617Z" stroke="#338A43" stroke-width="4" stroke-linejoin="round"/>
<path d="M30.586 46.7125C31.6977 46.7125 32.7639 46.2709 33.55 45.4848C34.3361 44.6986 34.7778 43.6324 34.7778 42.5207C34.7778 41.409 34.3361 40.3428 33.55 39.5567C32.7639 38.7706 31.6977 38.3289 30.586 38.3289C29.4742 38.3289 28.408 38.7706 27.6219 39.5567C26.8358 40.3428 26.3942 41.409 26.3942 42.5207C26.3942 43.6324 26.8358 44.6986 27.6219 45.4848C28.408 46.2709 29.4742 46.7125 30.586 46.7125Z" stroke="#338A43" stroke-width="4" stroke-linejoin="round"/>
<path d="M18.0105 34.1371C19.1223 34.1371 20.1885 33.6955 20.9746 32.9094C21.7607 32.1233 22.2023 31.0571 22.2023 29.9453C22.2023 28.8336 21.7607 27.7674 20.9746 26.9813C20.1885 26.1952 19.1223 25.7535 18.0105 25.7535C16.8988 25.7535 15.8326 26.1952 15.0465 26.9813C14.2604 27.7674 13.8187 28.8336 13.8187 29.9453C13.8187 31.0571 14.2604 32.1233 15.0465 32.9094C15.8326 33.6955 16.8988 34.1371 18.0105 34.1371V34.1371Z" stroke="#338A43" stroke-width="4" stroke-linejoin="round"/>
<path d="M43.1614 34.1371C44.2731 34.1371 45.3393 33.6955 46.1254 32.9094C46.9116 32.1233 47.3532 31.0571 47.3532 29.9453C47.3532 28.8336 46.9116 27.7674 46.1254 26.9813C45.3393 26.1952 44.2731 25.7535 43.1614 25.7535C42.0497 25.7535 40.9835 26.1952 40.1974 26.9813C39.4112 27.7674 38.9696 28.8336 38.9696 29.9453C38.9696 31.0571 39.4112 32.1233 40.1974 32.9094C40.9835 33.6955 42.0497 34.1371 43.1614 34.1371Z" stroke="#338A43" stroke-width="4" stroke-linejoin="round"/>
<path d="M30.5859 57.8906H58.5313" stroke="#338A43" stroke-width="4" stroke-linecap="round"/>
</svg>
