<svg width="46" height="57" viewBox="0 0 46 57" fill="none" xmlns="http://www.w3.org/2000/svg">
<path d="M22.5859 12.7812C23.7216 12.7812 24.8318 12.422 25.7761 11.749C26.7204 11.076 27.4564 10.1194 27.891 9.00019C28.3256 7.88099 28.4394 6.64946 28.2178 5.46132C27.9962 4.27319 27.4493 3.18182 26.6463 2.32522C25.8432 1.46863 24.8201 0.885277 23.7062 0.648943C22.5923 0.412608 21.4377 0.533904 20.3885 0.997491C19.3392 1.46108 18.4424 2.24613 17.8115 3.25338C17.1805 4.26064 16.8438 5.44484 16.8438 6.65625C16.8454 8.28017 17.4509 9.83708 18.5274 10.9854C19.6039 12.1336 21.0635 12.7795 22.5859 12.7812Z" fill="#338A43"/>
<path d="M3.47384 12.8684L3.52271 12.8815L3.56831 12.8957C3.6769 12.9262 3.7855 12.9589 3.89409 12.9928C5.91497 13.5885 15.723 16.3662 22.6326 16.3662C29.0536 16.3662 37.9744 13.9659 40.8282 13.151C41.1122 13.0406 41.4023 12.9466 41.6969 12.8695C43.7602 12.324 45.1719 14.4296 45.1719 16.3542C45.1719 18.2602 43.467 19.1679 41.7458 19.8193V19.8498L31.4057 23.0945C30.3491 23.5015 30.0668 23.9171 29.9289 24.2772C29.4804 25.4326 29.8388 27.7204 29.9658 28.5191L30.5956 33.4286L34.0912 52.6513C34.1021 52.7037 34.1118 52.7571 34.1205 52.8117L34.1455 52.9502C34.3974 54.7122 33.1095 56.4219 30.6706 56.4219C28.5422 56.4219 27.6029 54.9457 27.1956 52.9372C26.7884 50.9286 24.1551 35.746 22.6348 35.746C21.1145 35.746 17.9827 52.9372 17.9827 52.9372C17.5755 54.9457 16.6362 56.4219 14.5078 56.4219C12.0623 56.4219 10.7744 54.7046 11.0329 52.9372C11.0551 52.7886 11.0826 52.6408 11.1154 52.4942L14.6588 33.4308L15.2875 28.5212C15.7425 25.6617 15.3765 24.7168 15.2528 24.4954C15.2494 24.4902 15.2465 24.4847 15.2441 24.479C15.1268 24.2608 14.5925 23.772 13.3459 23.3018L3.65084 19.8967C3.59129 19.8808 3.53258 19.8619 3.47493 19.84C1.73746 19.1854 0 18.2798 0 16.3564C0 14.4329 1.4106 12.324 3.47384 12.8684Z" fill="#338A43"/>
</svg>
